<svg width="98" height="18" viewBox="0 0 98 18" fill="none" xmlns="http://www.w3.org/2000/svg">
<path d="M9.38086 0L12.4967 4.7114L17.9404 6.21885L14.4224 10.6381L14.6709 16.2812L9.38086 14.301L4.09079 16.2812L4.33931 10.6381L0.821351 6.21885L6.26501 4.7114L9.38086 0Z" fill="#E60000"/>
<path d="M29.3809 0L32.4967 4.7114L37.9404 6.21885L34.4224 10.6381L34.6709 16.2812L29.3809 14.301L24.0908 16.2812L24.3393 10.6381L20.8214 6.21885L26.265 4.7114L29.3809 0Z" fill="#E60000"/>
<path d="M49.3809 0L52.4967 4.7114L57.9404 6.21885L54.4224 10.6381L54.6709 16.2812L49.3809 14.301L44.0908 16.2812L44.3393 10.6381L40.8214 6.21885L46.265 4.7114L49.3809 0Z" fill="#E60000"/>
<path d="M69.3809 0L72.4967 4.7114L77.9404 6.21885L74.4224 10.6381L74.6709 16.2812L69.3809 14.301L64.0908 16.2812L64.3393 10.6381L60.8214 6.21885L66.265 4.7114L69.3809 0Z" fill="#E60000"/>
<path d="M83.6503 16.2812L88.9404 14.301V0L85.8245 4.7114L80.3809 6.21885L83.8988 10.6381L83.6503 16.2812Z" fill="#E60000"/>
<path d="M92.0563 4.7114L88.9404 0V14.301L94.2305 16.2812L93.982 10.6381L97.4999 6.21885L92.0563 4.7114Z" fill="#E60000"/>
</svg>
