<svg width="25" height="24" viewBox="0 0 25 24" fill="none" xmlns="http://www.w3.org/2000/svg">
<path fill-rule="evenodd" clip-rule="evenodd" d="M12.4004 2.25C7.01561 2.25 2.65039 6.61522 2.65039 12C2.65039 17.3848 7.01561 21.75 12.4004 21.75C17.7852 21.75 22.1504 17.3848 22.1504 12C22.1504 6.61522 17.7852 2.25 12.4004 2.25ZM13.1504 6C13.1504 5.58579 12.8146 5.25 12.4004 5.25C11.9862 5.25 11.6504 5.58579 11.6504 6V12C11.6504 12.4142 11.9862 12.75 12.4004 12.75H16.9004C17.3146 12.75 17.6504 12.4142 17.6504 12C17.6504 11.5858 17.3146 11.25 16.9004 11.25H13.1504V6Z" fill="#999999"/>
</svg>
