<svg width="470" height="470" viewBox="0 0 470 470" fill="none" xmlns="http://www.w3.org/2000/svg">
<g filter="url(#filter0_b_90_250)">
<path d="M389.97 188.658C386.681 85.6396 303.206 2.505 199.84 0C197.178 0 194.985 2.03531 194.985 4.69687L194.828 73.8974C194.828 77.3418 192.166 80.0033 188.72 80.1599C85.6681 83.2911 2.50583 166.895 0 270.227C0 272.888 2.03599 275.08 4.69843 275.08L73.7654 275.236C77.2109 275.236 79.8734 277.898 80.03 281.342C83.3189 384.36 166.951 467.495 270.16 470C272.822 470 275.015 467.965 275.015 465.303L275.172 396.103C275.172 392.658 277.834 389.997 281.28 389.84C384.332 386.552 467.494 302.948 470 199.773C470 197.112 467.964 194.92 465.302 194.92L396.235 194.763C392.789 194.763 390.127 192.102 389.97 188.658ZM268.281 389.37C209.707 385.926 162.722 338.331 160.53 279.464C160.373 276.959 158.337 274.923 155.831 274.923L86.921 274.767C83.3189 274.767 80.4998 271.792 80.6564 268.191C84.102 209.637 131.713 162.668 190.6 160.476C193.106 160.32 195.142 158.284 195.142 155.779L195.298 86.7355C195.298 83.1346 198.274 80.3165 201.876 80.473C260.45 83.9174 307.434 131.512 309.627 190.38C309.783 192.885 311.819 194.92 314.325 194.92L383.236 195.077C386.838 195.077 389.657 198.051 389.5 201.652C386.055 261.772 336.095 309.524 275.172 309.524L275.015 383.108C274.858 386.709 271.883 389.527 268.281 389.37Z" fill="url(#paint0_linear_90_250)" fill-opacity="0.3"/>
</g>
<g filter="url(#filter1_b_90_250)">
<path fill-rule="evenodd" clip-rule="evenodd" d="M192.938 193.348C192.938 183.875 203.094 177.869 211.395 182.435L288.054 224.598C296.658 229.33 296.658 241.692 288.054 246.424L211.395 288.587C203.094 293.152 192.938 287.147 192.938 277.674V193.348Z" fill="url(#paint2_linear_90_250)" fill-opacity="0.3"/>
<path d="M193.438 193.348C193.438 184.255 203.186 178.491 211.154 182.873L287.813 225.036C296.072 229.578 296.072 241.444 287.813 245.986L211.154 288.149C203.186 292.531 193.438 286.766 193.438 277.674V193.348Z" stroke="url(#paint3_linear_90_250)" stroke-opacity="0.5"/>
</g>
<defs>
<filter id="filter0_b_90_250" x="-12" y="-12" width="494" height="494" filterUnits="userSpaceOnUse" color-interpolation-filters="sRGB">
<feFlood flood-opacity="0" result="BackgroundImageFix"/>
<feGaussianBlur in="BackgroundImageFix" stdDeviation="6"/>
<feComposite in2="SourceAlpha" operator="in" result="effect1_backgroundBlur_90_250"/>
<feBlend mode="normal" in="SourceGraphic" in2="effect1_backgroundBlur_90_250" result="shape"/>
</filter>
<filter id="filter1_b_90_250" x="180.938" y="168.875" width="125.569" height="133.271" filterUnits="userSpaceOnUse" color-interpolation-filters="sRGB">
<feFlood flood-opacity="0" result="BackgroundImageFix"/>
<feGaussianBlur in="BackgroundImageFix" stdDeviation="6"/>
<feComposite in2="SourceAlpha" operator="in" result="effect1_backgroundBlur_90_250"/>
<feBlend mode="normal" in="SourceGraphic" in2="effect1_backgroundBlur_90_250" result="shape"/>
</filter>
<linearGradient id="paint0_linear_90_250" x1="235" y1="0" x2="235" y2="470" gradientUnits="userSpaceOnUse">
<stop stop-color="white" stop-opacity="0.5"/>
<stop offset="1" stop-color="white"/>
</linearGradient>
<linearGradient id="paint1_linear_90_250" x1="235" y1="0" x2="235" y2="470" gradientUnits="userSpaceOnUse">
<stop stop-color="white" stop-opacity="0"/>
<stop offset="1" stop-color="white"/>
</linearGradient>
<linearGradient id="paint2_linear_90_250" x1="243.722" y1="180.875" x2="243.722" y2="290.146" gradientUnits="userSpaceOnUse">
<stop offset="0.147231" stop-color="white"/>
<stop offset="0.42761" stop-color="white" stop-opacity="0.5"/>
<stop offset="1" stop-color="#1600FD" stop-opacity="0"/>
</linearGradient>
<linearGradient id="paint3_linear_90_250" x1="243.722" y1="180.875" x2="243.722" y2="290.146" gradientUnits="userSpaceOnUse">
<stop stop-color="white" stop-opacity="0"/>
<stop offset="1" stop-color="white"/>
</linearGradient>
</defs>
</svg>
